<mxfile host="65bd71144e">
    <diagram id="r1gV5wsYT8M2kBrTsxm7" name="Page-1">
        <mxGraphModel dx="1447" dy="1080" grid="1" gridSize="10" guides="1" tooltips="1" connect="1" arrows="1" fold="1" page="1" pageScale="1" pageWidth="827" pageHeight="1169" math="1" shadow="0">
            <root>
                <mxCell id="0"/>
                <mxCell id="1" parent="0"/>
                <mxCell id="27" value="图示均值不等式：调和&amp;lt;几何&amp;lt;算术&amp;lt;平方" style="swimlane;labelBackgroundColor=default;fontSize=14;fillColor=none;html=1;resizable=0;rotatable=0;deletable=0;pointerEvents=1;rounded=0;shadow=0;swimlaneLine=1;sketch=0;strokeColor=default;container=1;connectable=0;allowArrows=0;" vertex="1" parent="1">
                    <mxGeometry x="20" y="20" width="330" height="320" as="geometry">
                        <mxRectangle x="90" y="115" width="150" height="23" as="alternateBounds"/>
                    </mxGeometry>
                </mxCell>
                <mxCell id="3" value="" style="endArrow=none;html=1;fontSize=24;movable=0;resizable=0;rotatable=0;deletable=0;editable=0;connectable=0;" edge="1" parent="27">
                    <mxGeometry width="50" height="50" relative="1" as="geometry">
                        <mxPoint x="40" y="174" as="sourcePoint"/>
                        <mxPoint x="290" y="174" as="targetPoint"/>
                    </mxGeometry>
                </mxCell>
                <mxCell id="17" value="$$\frac{a+b}{2}$$" style="edgeLabel;html=1;align=center;verticalAlign=middle;resizable=0;points=[];fontSize=14;movable=0;rotatable=0;deletable=0;editable=0;connectable=0;" vertex="1" connectable="0" parent="3">
                    <mxGeometry x="0.136" y="-3" relative="1" as="geometry">
                        <mxPoint x="-32" y="-13" as="offset"/>
                    </mxGeometry>
                </mxCell>
                <mxCell id="5" value="" style="endArrow=none;html=1;fontSize=12;movable=0;resizable=0;rotatable=0;deletable=0;editable=0;connectable=0;" edge="1" parent="27">
                    <mxGeometry width="50" height="50" relative="1" as="geometry">
                        <mxPoint x="40" y="294" as="sourcePoint"/>
                        <mxPoint x="290" y="174" as="targetPoint"/>
                    </mxGeometry>
                </mxCell>
                <mxCell id="18" value="$$\sqrt{\frac{a^2+b^2}{2}}$$" style="edgeLabel;html=1;align=center;verticalAlign=middle;resizable=0;points=[];fontSize=14;movable=0;rotatable=0;deletable=0;editable=0;connectable=0;" vertex="1" connectable="0" parent="5">
                    <mxGeometry x="-0.0775" y="1" relative="1" as="geometry">
                        <mxPoint as="offset"/>
                    </mxGeometry>
                </mxCell>
                <mxCell id="15" value="" style="endArrow=none;html=1;fontSize=14;movable=0;resizable=0;rotatable=0;deletable=0;editable=0;connectable=0;" edge="1" parent="27">
                    <mxGeometry width="50" height="50" relative="1" as="geometry">
                        <mxPoint x="40" y="294" as="sourcePoint"/>
                        <mxPoint x="40" y="174" as="targetPoint"/>
                    </mxGeometry>
                </mxCell>
                <mxCell id="16" value="$$\frac{a-b}{2}$$" style="edgeLabel;html=1;align=center;verticalAlign=middle;resizable=0;points=[];fontSize=14;movable=0;rotatable=0;deletable=0;editable=0;connectable=0;" vertex="1" connectable="0" parent="15">
                    <mxGeometry x="0.1667" relative="1" as="geometry">
                        <mxPoint as="offset"/>
                    </mxGeometry>
                </mxCell>
                <mxCell id="19" value="" style="endArrow=none;html=1;fontSize=14;movable=0;resizable=0;rotatable=0;deletable=0;editable=0;connectable=0;" edge="1" parent="27">
                    <mxGeometry width="50" height="50" relative="1" as="geometry">
                        <mxPoint x="40" y="174" as="sourcePoint"/>
                        <mxPoint x="90" y="74" as="targetPoint"/>
                    </mxGeometry>
                </mxCell>
                <mxCell id="22" value="$$\frac{a-b}{2}$$" style="edgeLabel;html=1;align=center;verticalAlign=middle;resizable=0;points=[];fontSize=14;labelBackgroundColor=default;movable=0;rotatable=0;deletable=0;editable=0;connectable=0;" vertex="1" connectable="0" parent="19">
                    <mxGeometry x="0.208" y="-1" relative="1" as="geometry">
                        <mxPoint x="-11" y="10" as="offset"/>
                    </mxGeometry>
                </mxCell>
                <mxCell id="20" value="" style="endArrow=none;html=1;fontSize=14;movable=0;resizable=0;rotatable=0;deletable=0;editable=0;connectable=0;" edge="1" parent="27">
                    <mxGeometry width="50" height="50" relative="1" as="geometry">
                        <mxPoint x="90" y="74" as="sourcePoint"/>
                        <mxPoint x="290" y="174" as="targetPoint"/>
                    </mxGeometry>
                </mxCell>
                <mxCell id="23" value="$$\sqrt{ab}$$" style="edgeLabel;html=1;align=center;verticalAlign=middle;resizable=0;points=[];fontSize=14;movable=0;rotatable=0;deletable=0;editable=0;connectable=0;" vertex="1" connectable="0" parent="20">
                    <mxGeometry x="-0.212" y="-4" relative="1" as="geometry">
                        <mxPoint y="-3" as="offset"/>
                    </mxGeometry>
                </mxCell>
                <mxCell id="24" value="" style="endArrow=none;html=1;fontSize=14;movable=0;resizable=0;rotatable=0;deletable=0;editable=0;connectable=0;" edge="1" parent="27">
                    <mxGeometry width="50" height="50" relative="1" as="geometry">
                        <mxPoint x="290" y="74" as="sourcePoint"/>
                        <mxPoint x="90" y="74" as="targetPoint"/>
                    </mxGeometry>
                </mxCell>
                <mxCell id="26" value="$$\frac{2}{\frac{1}{a}+\frac{1}{b}}$$" style="edgeLabel;html=1;align=center;verticalAlign=middle;resizable=0;points=[];fontSize=14;movable=0;rotatable=0;deletable=0;editable=0;connectable=0;" vertex="1" connectable="0" parent="24">
                    <mxGeometry x="-0.11" y="-4" relative="1" as="geometry">
                        <mxPoint as="offset"/>
                    </mxGeometry>
                </mxCell>
                <mxCell id="25" value="" style="endArrow=none;html=1;fontSize=14;movable=0;resizable=0;rotatable=0;deletable=0;editable=0;connectable=0;" edge="1" parent="27">
                    <mxGeometry width="50" height="50" relative="1" as="geometry">
                        <mxPoint x="290" y="174" as="sourcePoint"/>
                        <mxPoint x="290" y="74" as="targetPoint"/>
                    </mxGeometry>
                </mxCell>
            </root>
        </mxGraphModel>
    </diagram>
</mxfile>